<?xml version="1.0" encoding="iso-8859-1"?>
<!-- Uploaded to: SVG Repo, www.svgrepo.com, Generator: SVG Repo Mixer Tools -->
<svg fill="#000000" version="1.1" id="Layer_1" xmlns="http://www.w3.org/2000/svg" xmlns:xlink="http://www.w3.org/1999/xlink" 
	 viewBox="0 0 512.001 512.001" xml:space="preserve">
<g>
	<g>
		<path d="M234.316,183.324c-26.937,1.709-51.453,12.463-70.541,29.253h81.88v30.431H138.96c-5.216,9.146-9.247,19.05-11.886,29.503
			h102.608c24.658,0,44.719-20.061,44.719-44.719C274.4,204.986,256.869,185.648,234.316,183.324z"/>
	</g>
</g>
<g>
	<g>
		<path d="M175.067,302.944h-51.584v29.503h20.255v30.431h-20.256v29.503h51.584c-9.289-12.504-14.795-27.979-14.795-44.719
			C160.272,330.924,165.778,315.449,175.067,302.944z"/>
	</g>
</g>
<g>
	<g>
		<path d="M384.926,272.512c-2.638-10.453-6.67-20.357-11.886-29.503h-51.676v-30.431h26.862
			c-15.776-13.878-35.258-23.635-56.752-27.568c8.672,12.499,13.358,27.356,13.358,42.783c0,16.739-5.506,32.214-14.796,44.719
			H384.926z"/>
	</g>
</g>
<g>
	<g>
		<path d="M229.681,422.813H127.073c2.638,10.453,6.669,20.357,11.885,29.503h106.696v30.431h-81.879
			c19.087,16.791,43.603,27.544,70.539,29.255c22.555-2.323,40.086-21.662,40.086-44.47
			C274.4,442.873,254.339,422.813,229.681,422.813z"/>
	</g>
</g>
<g>
	<g>
		<path d="M373.042,452.316c5.216-9.146,9.247-19.05,11.885-29.503h-94.891c9.29,12.505,14.796,27.979,14.796,44.719
			c0,15.428-4.687,30.285-13.359,42.783c21.495-3.932,40.977-13.689,56.753-27.568h-26.861v-30.431H373.042z"/>
	</g>
</g>
<g>
	<g>
		<path d="M388.519,332.447v-29.503H235.422c-24.658,0-44.719,20.06-44.719,44.719c0,24.658,20.061,44.719,44.719,44.719h153.096
			v-29.503H219.447v-30.431H388.519z"/>
	</g>
</g>
<g>
	<g>
		<path d="M254.723,30.474c5.484-0.34,10.694,1.529,14.666,5.262c3.977,3.739,6.168,8.801,6.168,14.255h30.431
			c0-13.739-5.743-27.018-15.758-36.43C280.072,4.014,266.797-0.765,252.838,0.1c-25.082,1.558-45.171,21.647-46.727,46.728
			c-1.367,22.02,12.133,42.646,32.83,50.161c1.103,0.401,1.843,1.516,1.843,2.773v24.829h30.431V99.762
			c0-14.015-8.797-26.625-21.89-31.379c-8.227-2.986-13.388-10.89-12.843-19.669C237.08,39.084,245.093,31.072,254.723,30.474z"/>
	</g>
</g>
<g>
	<g>
		<polygon points="240.784,136.359 240.784,152.658 240.784,166.518 271.216,166.518 271.216,152.658 271.216,136.359 		"/>
	</g>
</g>
<g>
	<g>
		
			<rect x="65.252" y="181.147" transform="matrix(0.5451 -0.8384 0.8384 0.5451 -139.302 162.9124)" width="30.432" height="57.344"/>
	</g>
</g>
<g>
	<g>
		<rect x="327.82" y="127.55" transform="matrix(0.3827 -0.9239 0.9239 0.3827 88.1674 417.4857)" width="57.344" height="30.432"/>
	</g>
</g>
<g>
	<g>
		
			<rect x="140.298" y="114.084" transform="matrix(0.9239 -0.3827 0.3827 0.9239 -42.7931 70.3804)" width="30.432" height="57.344"/>
	</g>
</g>
<g>
	<g>
		
			<rect x="402.861" y="194.612" transform="matrix(0.8384 -0.5451 0.5451 0.8384 -44.6299 269.1356)" width="57.344" height="30.432"/>
	</g>
</g>
</svg>