<?xml version="1.0" encoding="iso-8859-1"?>
<!-- Uploaded to: SVG Repo, www.svgrepo.com, Generator: SVG Repo Mixer Tools -->
<svg height="800px" width="800px" version="1.1" id="Layer_1" xmlns="http://www.w3.org/2000/svg" xmlns:xlink="http://www.w3.org/1999/xlink" 
	 viewBox="0 0 512 512" xml:space="preserve">
<circle style="fill:#6EAECD;" cx="256" cy="256" r="256"/>
<path style="fill:#5388B4;" d="M456.177,96.432c24.203,39.097,38.187,85.187,38.187,134.548c0,141.385-114.615,256-256,256
	c-81.038,0-153.27-37.665-200.177-96.432C83.308,463.436,163.977,512,256,512c141.385,0,256-114.615,256-256
	C512,195.653,491.107,140.195,456.177,96.432z"/>
<circle style="fill:#F2F2F2;" cx="256" cy="256" r="204.8"/>
<path style="fill:#E6E6E6;" d="M75.506,280.998c0-113.108,91.692-204.8,204.8-204.8c51.306,0,98.204,18.867,134.138,50.039
	C376.884,80.431,319.858,51.2,256,51.2C142.892,51.2,51.2,142.892,51.2,256c0,61.802,27.376,117.209,70.662,154.761
	C92.895,375.433,75.506,330.248,75.506,280.998z"/>
<g>
	<circle style="fill:#6EAECD;" cx="256" cy="256" r="29.582"/>
	<path style="fill:#6EAECD;" d="M256,190.535c-4.713,0-8.533-3.821-8.533-8.533V45.067c0-4.713,3.821-8.533,8.533-8.533
		c4.713,0,8.533,3.821,8.533,8.533v136.934C264.533,186.714,260.713,190.535,256,190.535z"/>
	<path style="fill:#6EAECD;" d="M256,475.466c-4.713,0-8.533-3.821-8.533-8.533V329.999c0-4.713,3.821-8.533,8.533-8.533
		c4.713,0,8.533,3.821,8.533,8.533v136.934C264.533,471.645,260.713,475.466,256,475.466z"/>
	<path style="fill:#6EAECD;" d="M466.933,264.533H329.999c-4.713,0-8.533-3.821-8.533-8.533c0-4.713,3.821-8.533,8.533-8.533
		h136.934c4.713,0,8.533,3.821,8.533,8.533C475.466,260.713,471.645,264.533,466.933,264.533z"/>
	<path style="fill:#6EAECD;" d="M182.001,264.533H45.067c-4.713,0-8.533-3.821-8.533-8.533c0-4.713,3.821-8.533,8.533-8.533h136.934
		c4.713,0,8.533,3.821,8.533,8.533C190.535,260.713,186.714,264.533,182.001,264.533z"/>
	<path style="fill:#6EAECD;" d="M307.634,212.208c-2.183,0-4.368-0.833-6.034-2.5c-3.333-3.333-3.333-8.736,0-12.067l96.826-96.827
		c3.333-3.333,8.736-3.333,12.067,0c3.333,3.333,3.333,8.736,0,12.067l-96.826,96.827
		C312.001,211.375,309.818,212.208,307.634,212.208z"/>
	<path style="fill:#6EAECD;" d="M106.157,413.685c-2.183,0-4.368-0.833-6.034-2.5c-3.333-3.333-3.333-8.736,0-12.067l96.827-96.827
		c3.333-3.333,8.736-3.333,12.067,0c3.333,3.333,3.333,8.736,0,12.067l-96.827,96.827
		C110.525,412.852,108.34,413.685,106.157,413.685z"/>
	<path style="fill:#6EAECD;" d="M404.46,413.685c-2.183,0-4.368-0.833-6.034-2.5L301.6,314.358c-3.333-3.333-3.333-8.736,0-12.067
		c3.333-3.333,8.736-3.334,12.067,0l96.826,96.827c3.333,3.333,3.333,8.736,0,12.067
		C408.827,412.852,406.643,413.685,404.46,413.685z"/>
	<path style="fill:#6EAECD;" d="M202.983,212.208c-2.183,0-4.368-0.833-6.034-2.5l-96.826-96.826c-3.333-3.333-3.333-8.736,0-12.067
		c3.333-3.333,8.736-3.333,12.067,0l96.827,96.827c3.333,3.333,3.333,8.736,0,12.067
		C207.351,211.375,205.168,212.208,202.983,212.208z"/>
	<path style="fill:#6EAECD;" d="M284.966,196.152c-1.087,0-2.19-0.209-3.257-0.65c-4.355-1.801-6.425-6.791-4.624-11.147
		l52.326-126.54c1.8-4.355,6.789-6.425,11.147-4.624c4.355,1.801,6.425,6.791,4.624,11.147l-52.326,126.54
		C291.495,194.166,288.315,196.152,284.966,196.152z"/>
	<path style="fill:#6EAECD;" d="M176.084,459.46c-1.087,0-2.19-0.209-3.257-0.65c-4.355-1.801-6.425-6.791-4.624-11.147
		l52.326-126.54c1.801-4.355,6.788-6.425,11.147-4.624c4.355,1.801,6.425,6.791,4.624,11.147l-52.326,126.54
		C182.613,457.473,179.434,459.46,176.084,459.46z"/>
	<path style="fill:#6EAECD;" d="M451.612,345.139c-1.087,0-2.191-0.209-3.257-0.65l-126.541-52.326
		c-4.355-1.801-6.425-6.791-4.624-11.147s6.795-6.424,11.146-4.624l126.541,52.326c4.355,1.801,6.425,6.791,4.624,11.147
		C458.141,343.154,454.963,345.139,451.612,345.139z"/>
	<path style="fill:#6EAECD;" d="M188.305,236.257c-1.087,0-2.191-0.209-3.257-0.65l-126.54-52.326
		c-4.355-1.801-6.425-6.791-4.624-11.147c1.801-4.355,6.79-6.426,11.146-4.624l126.541,52.326c4.355,1.801,6.425,6.791,4.624,11.147
		C194.834,234.272,191.655,236.257,188.305,236.257z"/>
	<path style="fill:#6EAECD;" d="M324.405,235.913c-3.346,0-6.523-1.982-7.885-5.266c-1.806-4.353,0.258-9.346,4.611-11.151
		l126.479-52.478c4.352-1.807,9.346,0.259,11.151,4.611c1.806,4.353-0.258,9.346-4.611,11.151l-126.479,52.478
		C326.603,235.702,325.494,235.913,324.405,235.913z"/>
	<path style="fill:#6EAECD;" d="M61.228,345.107c-3.346,0-6.523-1.982-7.885-5.264c-1.806-4.353,0.258-9.346,4.611-11.153
		l126.478-52.478c4.355-1.808,9.347,0.259,11.152,4.611c1.806,4.353-0.258,9.346-4.611,11.152L64.496,344.454
		C63.427,344.898,62.317,345.107,61.228,345.107z"/>
	<path style="fill:#6EAECD;" d="M336.893,459.099c-3.346,0-6.523-1.982-7.885-5.266L276.53,327.355
		c-1.806-4.353,0.258-9.346,4.611-11.151c4.354-1.807,9.346,0.259,11.151,4.611l52.478,126.479
		c1.806,4.353-0.258,9.346-4.611,11.151C339.09,458.889,337.981,459.099,336.893,459.099z"/>
	<path style="fill:#6EAECD;" d="M227.697,195.922c-3.346,0-6.523-1.982-7.885-5.266L167.334,64.177
		c-1.806-4.353,0.258-9.346,4.611-11.151c4.353-1.806,9.347,0.259,11.151,4.611l52.478,126.479
		c1.806,4.353-0.258,9.346-4.611,11.151C229.895,195.711,228.787,195.922,227.697,195.922z"/>
</g>
</svg>